<svg width="62" height="68" viewBox="0 0 62 68" fill="none" xmlns="http://www.w3.org/2000/svg">
<path d="M8.55078 28.0469V58.0074C8.55078 62.9065 12.5223 66.8779 17.4213 66.8779H44.0322C49.2579 66.8779 53.4941 62.6417 53.4941 57.416V28.0469" stroke="#00B7DC" stroke-width="2"/>
<path d="M61 30.0703L37.328 6.28711C33.872 2.81484 28.2555 2.80167 24.7832 6.25771L1 29.9297" stroke="#00B7DC" stroke-width="2" stroke-linecap="round"/>
<path d="M39.9115 34.2117V29.9565C39.9115 24.9195 35.828 20.8363 30.791 20.8366C25.7545 20.837 21.6719 24.92 21.6719 29.9565V34.2131" stroke="#00B7DC" stroke-width="2"/>
<path d="M35.047 34.0459V31.0065C35.047 28.6562 33.1419 26.7508 30.7916 26.7505C28.4409 26.7502 26.5352 28.6558 26.5352 31.0064V34.0448" stroke="#00B7DC" stroke-width="2"/>
<mask id="path-5-inside-1_2389_1492" fill="white">
<rect x="19.2402" y="34.0469" width="23.1036" height="23.1036" rx="1"/>
</mask>
<rect x="19.2402" y="34.0469" width="23.1036" height="23.1036" rx="1" stroke="#00B7DC" stroke-width="4" mask="url(#path-5-inside-1_2389_1492)"/>
<path d="M30.792 40.875C32.0567 40.8751 33.082 41.9004 33.082 43.165C33.082 43.8201 32.8075 44.4109 32.3652 44.8291L32.166 44.9971C31.9391 45.1675 31.8558 45.4007 31.8223 45.5225C31.7847 45.659 31.7724 45.7972 31.7676 45.9102C31.758 46.1375 31.7758 46.4099 31.7969 46.6729C31.8418 47.2323 31.9092 47.8527 31.9033 48.4688C31.8973 49.0965 31.8124 49.5855 31.6357 49.8975C31.5551 50.0398 31.4606 50.1348 31.3496 50.1982C31.2373 50.2623 31.0651 50.3183 30.792 50.3184C30.5185 50.3184 30.3457 50.2624 30.2334 50.1982C30.1225 50.1348 30.0289 50.0397 29.9482 49.8975C29.7716 49.5855 29.6866 49.0966 29.6807 48.4688C29.6748 47.8527 29.7422 47.2323 29.7871 46.6729C29.8082 46.4099 29.826 46.1375 29.8164 45.9102C29.8116 45.7972 29.7993 45.659 29.7617 45.5225C29.7282 45.4007 29.6449 45.1675 29.418 44.9971C28.8603 44.578 28.502 43.9135 28.502 43.165C28.502 41.9003 29.5273 40.875 30.792 40.875Z" stroke="#00B7DC" stroke-width="1.5"/>
</svg>
